<svg width="150" height="36" viewBox="0 0 150 36" fill="none" xmlns="http://www.w3.org/2000/svg">
<path d="M145.754 13.4023C144.359 11.2304 142.203 9.7315 139.681 9.18166C137.159 8.63182 134.574 9.09686 132.402 10.4912C130.23 11.8855 128.731 14.0422 128.182 16.5639C127.632 19.0856 128.097 21.6705 129.491 23.8424C130.885 26.0144 133.042 27.5133 135.564 28.0631C138.086 28.613 140.67 28.1479 142.842 26.7536C145.014 25.3593 146.513 23.2026 147.063 20.6809C147.613 18.1592 147.148 15.5743 145.754 13.4023Z" fill="#FF9F1C"/>
<g clip-path="url(#clip0)">
<path d="M139.127 13.0168L136.539 24.8851" stroke="white" stroke-width="2" stroke-linecap="round" stroke-linejoin="round"/>
<path d="M141.354 15.7628L137.308 14.8805C136.807 14.7714 136.284 14.8656 135.852 15.1425C135.421 15.4193 135.117 15.8562 135.008 16.357C134.899 16.8578 134.993 17.3814 135.27 17.8127C135.547 18.244 135.984 18.5476 136.485 18.6568L139.182 19.245C139.683 19.3542 140.12 19.6578 140.397 20.0891C140.673 20.5204 140.768 21.0441 140.658 21.5448C140.549 22.0456 140.246 22.4825 139.814 22.7594C139.383 23.0362 138.859 23.1305 138.359 23.0213L133.773 22.0214" stroke="white" stroke-width="2" stroke-linecap="round" stroke-linejoin="round"/>
</g>
<path d="M20.1466 9.248V26H16.7866V15.104L12.2986 26H9.75456L5.24256 15.104V26H1.88256V9.248H5.69856L11.0266 21.704L16.3546 9.248H20.1466ZM36.1885 12.704L27.9565 32.288H24.3805L27.2605 25.664L21.9325 12.704H25.7005L29.1325 21.992L32.6125 12.704H36.1885ZM48.3438 9.248V11.96H41.3598V16.256H46.7118V18.92H41.3598V26H37.9998V9.248H48.3438ZM52.4303 11.12C51.8383 11.12 51.3423 10.936 50.9423 10.568C50.5583 10.184 50.3663 9.712 50.3663 9.152C50.3663 8.592 50.5583 8.128 50.9423 7.76C51.3423 7.376 51.8383 7.184 52.4303 7.184C53.0223 7.184 53.5103 7.376 53.8943 7.76C54.2943 8.128 54.4943 8.592 54.4943 9.152C54.4943 9.712 54.2943 10.184 53.8943 10.568C53.5103 10.936 53.0223 11.12 52.4303 11.12ZM54.0863 12.704V26H50.7263V12.704H54.0863ZM64.774 12.512C66.358 12.512 67.638 13.016 68.614 14.024C69.59 15.016 70.078 16.408 70.078 18.2V26H66.718V18.656C66.718 17.6 66.454 16.792 65.926 16.232C65.398 15.656 64.678 15.368 63.766 15.368C62.838 15.368 62.102 15.656 61.558 16.232C61.03 16.792 60.766 17.6 60.766 18.656V26H57.406V12.704H60.766V14.36C61.214 13.784 61.782 13.336 62.47 13.016C63.174 12.68 63.942 12.512 64.774 12.512ZM72.4092 19.304C72.4092 17.96 72.6732 16.768 73.2012 15.728C73.7452 14.688 74.4732 13.888 75.3852 13.328C76.3132 12.768 77.3452 12.488 78.4812 12.488C79.4732 12.488 80.3372 12.688 81.0732 13.088C81.8252 13.488 82.4252 13.992 82.8732 14.6V12.704H86.2572V26H82.8732V24.056C82.4412 24.68 81.8412 25.2 81.0732 25.616C80.3212 26.016 79.4492 26.216 78.4572 26.216C77.3372 26.216 76.3132 25.928 75.3852 25.352C74.4732 24.776 73.7452 23.968 73.2012 22.928C72.6732 21.872 72.4092 20.664 72.4092 19.304ZM82.8732 19.352C82.8732 18.536 82.7132 17.84 82.3932 17.264C82.0732 16.672 81.6412 16.224 81.0972 15.92C80.5532 15.6 79.9692 15.44 79.3452 15.44C78.7212 15.44 78.1452 15.592 77.6172 15.896C77.0892 16.2 76.6572 16.648 76.3212 17.24C76.0012 17.816 75.8412 18.504 75.8412 19.304C75.8412 20.104 76.0012 20.808 76.3212 21.416C76.6572 22.008 77.0892 22.464 77.6172 22.784C78.1612 23.104 78.7372 23.264 79.3452 23.264C79.9692 23.264 80.5532 23.112 81.0972 22.808C81.6412 22.488 82.0732 22.04 82.3932 21.464C82.7132 20.872 82.8732 20.168 82.8732 19.352ZM96.9068 12.512C98.4908 12.512 99.7708 13.016 100.747 14.024C101.723 15.016 102.211 16.408 102.211 18.2V26H98.8508V18.656C98.8508 17.6 98.5868 16.792 98.0588 16.232C97.5308 15.656 96.8108 15.368 95.8988 15.368C94.9708 15.368 94.2348 15.656 93.6908 16.232C93.1628 16.792 92.8988 17.6 92.8988 18.656V26H89.5388V12.704H92.8988V14.36C93.3468 13.784 93.9148 13.336 94.6028 13.016C95.3068 12.68 96.0748 12.512 96.9068 12.512ZM104.542 19.352C104.542 17.976 104.822 16.776 105.382 15.752C105.942 14.712 106.718 13.912 107.71 13.352C108.702 12.776 109.838 12.488 111.118 12.488C112.766 12.488 114.126 12.904 115.198 13.736C116.286 14.552 117.014 15.704 117.382 17.192H113.758C113.566 16.616 113.238 16.168 112.774 15.848C112.326 15.512 111.766 15.344 111.094 15.344C110.134 15.344 109.374 15.696 108.814 16.4C108.254 17.088 107.974 18.072 107.974 19.352C107.974 20.616 108.254 21.6 108.814 22.304C109.374 22.992 110.134 23.336 111.094 23.336C112.454 23.336 113.342 22.728 113.758 21.512H117.382C117.014 22.952 116.286 24.096 115.198 24.944C114.11 25.792 112.75 26.216 111.118 26.216C109.838 26.216 108.702 25.936 107.71 25.376C106.718 24.8 105.942 24 105.382 22.976C104.822 21.936 104.542 20.728 104.542 19.352ZM132.204 19.064C132.204 19.544 132.172 19.976 132.108 20.36H122.388C122.468 21.32 122.804 22.072 123.396 22.616C123.988 23.16 124.716 23.432 125.58 23.432C126.828 23.432 127.716 22.896 128.244 21.824H131.868C131.484 23.104 130.748 24.16 129.66 24.992C128.572 25.808 127.236 26.216 125.652 26.216C124.372 26.216 123.22 25.936 122.196 25.376C121.188 24.8 120.396 23.992 119.82 22.952C119.26 21.912 118.979 20.712 118.979 19.352C118.979 17.976 119.26 16.768 119.82 15.728C120.38 14.688 121.164 13.888 122.172 13.328C123.18 12.768 124.34 12.488 125.652 12.488C126.916 12.488 128.044 12.76 129.036 13.304C130.044 13.848 130.82 14.624 131.364 15.632C131.924 16.624 132.204 17.768 132.204 19.064ZM128.724 18.104C128.708 17.24 128.396 16.552 127.788 16.04C127.18 15.512 126.436 15.248 125.556 15.248C124.724 15.248 124.02 15.504 123.444 16.016C122.884 16.512 122.54 17.208 122.412 18.104H128.724Z" fill="#FFFDFD"/>
<defs>
<clipPath id="clip0">
<rect width="13.2515" height="13.2515" fill="white" transform="translate(132.771 11.0657) rotate(12.3005)"/>
</clipPath>
</defs>
</svg>
